<?xml version="1.0" encoding="UTF-8" standalone="no"?>
<!-- Created with Inkscape (http://www.inkscape.org/) -->

<svg
   xmlns:dc="http://purl.org/dc/elements/1.1/"
   xmlns:cc="http://creativecommons.org/ns#"
   xmlns:rdf="http://www.w3.org/1999/02/22-rdf-syntax-ns#"
   xmlns:svg="http://www.w3.org/2000/svg"
   xmlns="http://www.w3.org/2000/svg"
   xmlns:sodipodi="http://sodipodi.sourceforge.net/DTD/sodipodi-0.dtd"
   xmlns:inkscape="http://www.inkscape.org/namespaces/inkscape"
   width="90.581306mm"
   height="94.85006mm"
   viewBox="0 0 320.95739 336.08289"
   id="svg4250"
   version="1.1"
   inkscape:version="0.91pre4 r13712"
   sodipodi:docname="HUTTE.svg">
  <defs
     id="defs4252" />
  <sodipodi:namedview
     id="base"
     pagecolor="#ffffff"
     bordercolor="#666666"
     borderopacity="1.0"
     inkscape:pageopacity="0.0"
     inkscape:pageshadow="2"
     inkscape:zoom="0.35"
     inkscape:cx="184.05011"
     inkscape:cy="65.184302"
     inkscape:document-units="px"
     inkscape:current-layer="layer1"
     showgrid="false"
     fit-margin-top="0"
     fit-margin-left="0"
     fit-margin-right="0"
     fit-margin-bottom="0"
     inkscape:window-width="1366"
     inkscape:window-height="705"
     inkscape:window-x="-8"
     inkscape:window-y="-8"
     inkscape:window-maximized="1" />
  <metadata
     id="metadata4255">
    <rdf:RDF>
      <cc:Work
         rdf:about="">
        <dc:format>image/svg+xml</dc:format>
        <dc:type
           rdf:resource="http://purl.org/dc/dcmitype/StillImage" />
        <dc:title></dc:title>
      </cc:Work>
    </rdf:RDF>
  </metadata>
  <g
     inkscape:label="Calque 1"
     inkscape:groupmode="layer"
     id="layer1"
     transform="translate(-190.94989,-261.46361)">
    <g
       id="g3369"
       style="fill:#00f4ff;fill-opacity:1;stroke:#000000;stroke-width:2.5;stroke-linecap:butt;stroke-linejoin:miter;stroke-miterlimit:4;stroke-dasharray:none;stroke-opacity:1"
       transform="matrix(2.8491257,0,0,2.8491257,1196.1749,-967.6592)">
      <rect
         y="497.32523"
         x="-334.67984"
         height="50.788288"
         width="79.359718"
         id="rect3356"
         style="fill:#00f4ff;fill-opacity:1;fill-rule:evenodd;stroke:#000000;stroke-width:2.5;stroke-linecap:butt;stroke-linejoin:miter;stroke-miterlimit:4;stroke-dasharray:none;stroke-opacity:1" />
      <path
         sodipodi:nodetypes="cccscsccc"
         inkscape:connector-curvature="0"
         id="path3346"
         d="m -254.95583,530.07966 c -17.79452,6.1745 -40.96975,7.36556 -58.21464,-3.3618 -16.34839,-7.4998 -30.38376,-21.89587 -35.33155,-42.53968 7.85296,-0.31033 4.99256,0.17386 10.9536,-1.44288 5.96105,-1.61678 7.9203,-0.89076 19.49202,-4.71344 8.43878,-3.07871 11.75315,-2.63429 18.19069,-5.09122 7.12177,-2.71808 10.07441,-2.54954 19.02789,-8.16901 0.90779,10.89804 2.19618,12.63883 7.8039,32.00914 6.11971,17.24126 9.99126,21.32165 18.07809,33.30889 z"
         inkscape:transform-center-y="-23.782934"
         inkscape:transform-center-x="-12.749509"
         style="fill:#00f4ff;fill-opacity:1;fill-rule:evenodd;stroke:#000000;stroke-width:2.5;stroke-linecap:butt;stroke-linejoin:miter;stroke-miterlimit:4;stroke-dasharray:none;stroke-opacity:1"
         transform="matrix(0.89966074,-0.43658968,0.43658968,0.89966074,-244.25408,-85.730341)" />
    </g>
    <path
       style="fill:none;fill-opacity:1;fill-rule:evenodd;stroke:#00f4ff;stroke-width:5.0999999;stroke-linecap:square;stroke-linejoin:round;stroke-miterlimit:4;stroke-dasharray:none;stroke-opacity:1"
       d="m 425.09867,524.11866 c -14.13109,30.17447 -22.52318,32.24489 -22.52318,32.24489 l -4.48151,2.8981 c -20.1785,13.45976 -70.1626,19.0594 -70.1626,19.0594 0,0 -69.34335,-2.75497 -100.21301,-42.50062 -33.60438,-43.26666 -34.21848,-90.05881 -34.21848,-90.05881 0,0 6.10056,-45.43971 27.85471,-76.49689 23.57137,-33.65149 63.8398,-51.76021 63.8398,-51.76021 0,0 45.89787,-20.60305 89.46167,-12.13997"
       id="path4179"
       inkscape:connector-curvature="0"
       sodipodi:nodetypes="ccccscscc" />
    <path
       sodipodi:type="star"
       style="fill:#00f4ff;fill-opacity:1;fill-rule:evenodd;stroke:#000000;stroke-width:0;stroke-linecap:butt;stroke-linejoin:miter;stroke-miterlimit:4;stroke-dasharray:none;stroke-opacity:1"
       id="path3344"
       sodipodi:sides="7"
       sodipodi:cx="-356.62338"
       sodipodi:cy="457.80576"
       sodipodi:r1="24.76478"
       sodipodi:r2="12.208285"
       sodipodi:arg1="0.35144479"
       sodipodi:arg2="1.4294368"
       inkscape:flatsided="false"
       inkscape:rounded="-10"
       inkscape:randomized="0"
       d="m -333.37232,466.33115 c 181.33928,-121.42008 -178.10981,155.5804 -21.53105,3.56112 92.85078,-90.14702 -117.22805,-27.77346 6.11137,11.40739 207.99323,66.07258 -232.6873,-42.24906 -16.20859,-14.61332 128.37129,16.38791 -51.37633,-108.96906 -5.10828,11.89045 78.02404,203.81123 -112.04652,-208.26412 1.31927,-21.78365 67.2256,110.58242 53.16282,-108.10872 -12.4813,3.41976 -110.69884,188.07588 92.96759,-217.45204 17.8537,-12.55043 -44.54234,121.5061 117.66927,-25.84032 -10.45564,-7.62609 -216.06324,30.71555 227.9752,-62.89414 20.94392,6.13352 -122.76899,40.93321 93.56837,75.88637 -0.55667,-12.92933 -158.72761,-149.77422 191.31284,139.02432 8.26295,20.19879 -108.54809,-70.46321 -0.99143,120.46908 9.76148,-8.49653 18.13315,-217.48093 10.588,236.25465 -10.64019,19.05398 -12.58827,-128.79941 -94.80467,74.33611 12.72903,2.33434 z"
       inkscape:transform-center-x="-5.3193789"
       inkscape:transform-center-y="-4.3381259"
       transform="matrix(0.70710678,-0.70710678,0.70710678,0.70710678,344.15661,-241.72266)" />
  </g>
</svg>
